<?xml version="1.0" encoding="utf-8"?>
<!-- Generator: Adobe Illustrator 26.2.1, SVG Export Plug-In . SVG Version: 6.00 Build 0)  -->
<svg version="1.1" id="Layer_1" xmlns="http://www.w3.org/2000/svg" xmlns:xlink="http://www.w3.org/1999/xlink" x="0px" y="0px"
	 viewBox="0 0 220 50" style="enable-background:new 0 0 220 50;" xml:space="preserve">
<style type="text/css">
	.st0{fill:none;stroke:#000000;stroke-width:3;stroke-miterlimit:10;}
</style>
<g>
	<path d="M5.26,27.6l4.51-0.28c0.1,0.73,0.3,1.29,0.6,1.67c0.49,0.62,1.19,0.93,2.09,0.93c0.68,0,1.2-0.16,1.56-0.48
		c0.37-0.32,0.55-0.68,0.55-1.1c0-0.4-0.17-0.75-0.52-1.07c-0.35-0.31-1.16-0.61-2.43-0.89c-2.08-0.47-3.56-1.09-4.44-1.86
		c-0.89-0.77-1.34-1.76-1.34-2.96c0-0.79,0.23-1.53,0.68-2.23c0.46-0.7,1.14-1.25,2.06-1.65c0.92-0.4,2.17-0.6,3.77-0.6
		c1.96,0,3.45,0.36,4.48,1.09c1.03,0.73,1.64,1.89,1.84,3.48l-4.47,0.26c-0.12-0.69-0.37-1.19-0.75-1.51
		c-0.38-0.31-0.9-0.47-1.57-0.47c-0.55,0-0.97,0.12-1.24,0.35c-0.28,0.23-0.42,0.52-0.42,0.85c0,0.24,0.12,0.46,0.35,0.66
		c0.22,0.2,0.75,0.39,1.59,0.56c2.07,0.45,3.55,0.9,4.45,1.35c0.9,0.46,1.55,1.02,1.96,1.7s0.61,1.43,0.61,2.27
		c0,0.98-0.27,1.89-0.82,2.72s-1.3,1.46-2.28,1.89c-0.98,0.43-2.21,0.64-3.69,0.64c-2.61,0-4.41-0.5-5.42-1.51
		C5.96,30.43,5.39,29.15,5.26,27.6z"/>
	<path d="M26.4,17.34v4.22h2.34v3.12H26.4v3.93c0,0.47,0.05,0.79,0.14,0.94c0.14,0.24,0.38,0.35,0.73,0.35
		c0.31,0,0.75-0.09,1.32-0.27l0.31,2.94c-1.05,0.23-2.04,0.35-2.95,0.35c-1.06,0-1.84-0.14-2.34-0.41c-0.5-0.27-0.87-0.68-1.11-1.24
		c-0.24-0.55-0.36-1.45-0.36-2.69v-3.91h-1.57v-3.12h1.57v-2.04L26.4,17.34z"/>
	<path d="M30.25,27.15c0-1.69,0.57-3.09,1.72-4.19c1.14-1.1,2.69-1.65,4.63-1.65c2.22,0,3.9,0.64,5.04,1.93
		c0.91,1.04,1.37,2.32,1.37,3.84c0,1.71-0.57,3.11-1.7,4.2s-2.7,1.64-4.7,1.64c-1.78,0-3.23-0.45-4.33-1.36
		C30.93,30.44,30.25,28.97,30.25,27.15z M34.52,27.14c0,0.99,0.2,1.72,0.6,2.2c0.4,0.47,0.9,0.71,1.51,0.71
		c0.61,0,1.12-0.23,1.51-0.7s0.59-1.22,0.59-2.25c0-0.96-0.2-1.68-0.6-2.15c-0.4-0.47-0.89-0.71-1.47-0.71
		c-0.62,0-1.13,0.24-1.54,0.72C34.72,25.44,34.52,26.17,34.52,27.14z"/>
	<path d="M45.1,21.57h3.98v1.82c0.38-0.79,0.78-1.33,1.19-1.63s0.91-0.44,1.51-0.44c0.63,0,1.31,0.2,2.06,0.59l-1.32,3.03
		c-0.5-0.21-0.9-0.31-1.19-0.31c-0.56,0-0.99,0.23-1.3,0.69c-0.44,0.65-0.66,1.86-0.66,3.64v3.72H45.1V21.57z"/>
	<path d="M54.59,21.57h4.49l2.29,7.39l2.13-7.39h4.19l-4.41,11.87c-0.5,1.35-1.01,2.27-1.54,2.74c-0.74,0.67-1.86,1-3.38,1
		c-0.61,0-1.56-0.08-2.84-0.25l-0.33-2.97c0.61,0.2,1.3,0.29,2.05,0.29c0.5,0,0.91-0.12,1.22-0.35c0.31-0.23,0.57-0.64,0.79-1.24
		L54.59,21.57z"/>
	<path d="M78.6,30.14h-5.38l-0.75,2.53h-4.84l5.76-15.33h5.17l5.76,15.33h-4.96L78.6,30.14z M77.62,26.83l-1.69-5.51l-1.67,5.51
		H77.62z"/>
	<path d="M85.59,21.57h3.98v1.82c0.38-0.79,0.78-1.33,1.19-1.63s0.91-0.44,1.51-0.44c0.63,0,1.31,0.2,2.06,0.59l-1.32,3.03
		c-0.5-0.21-0.9-0.31-1.19-0.31c-0.56,0-0.99,0.23-1.3,0.69c-0.44,0.65-0.66,1.86-0.66,3.64v3.72h-4.28V21.57z"/>
	<path d="M103.71,28.32l4.05,0.46c-0.22,0.84-0.59,1.57-1.1,2.19c-0.51,0.62-1.16,1.1-1.95,1.44c-0.79,0.34-1.8,0.51-3.02,0.51
		c-1.18,0-2.16-0.11-2.94-0.33c-0.78-0.22-1.46-0.57-2.02-1.07c-0.56-0.49-1.01-1.07-1.33-1.73c-0.32-0.66-0.48-1.54-0.48-2.63
		c0-1.14,0.2-2.09,0.59-2.85c0.29-0.56,0.68-1.06,1.17-1.5c0.5-0.44,1-0.77,1.53-0.99c0.83-0.34,1.89-0.51,3.19-0.51
		c1.81,0,3.19,0.32,4.15,0.97c0.95,0.65,1.62,1.6,2,2.84l-4.01,0.53c-0.13-0.47-0.35-0.83-0.68-1.07c-0.33-0.24-0.78-0.36-1.33-0.36
		c-0.7,0-1.27,0.25-1.71,0.76c-0.44,0.5-0.65,1.27-0.65,2.29c0,0.91,0.22,1.6,0.65,2.08c0.43,0.47,0.98,0.71,1.65,0.71
		c0.56,0,1.03-0.14,1.41-0.43C103.23,29.36,103.52,28.92,103.71,28.32z"/>
	<path d="M127.34,26.4l4.15,1.26c-0.28,1.16-0.72,2.14-1.32,2.92c-0.6,0.78-1.34,1.37-2.23,1.77c-0.89,0.4-2.02,0.6-3.39,0.6
		c-1.67,0-3.03-0.24-4.08-0.73c-1.06-0.48-1.97-1.34-2.73-2.55s-1.15-2.78-1.15-4.68c0-2.54,0.67-4.49,2.02-5.85
		c1.35-1.36,3.26-2.04,5.73-2.04c1.93,0,3.45,0.39,4.55,1.17c1.11,0.78,1.93,1.98,2.46,3.6l-4.18,0.93
		c-0.15-0.47-0.3-0.81-0.46-1.02c-0.26-0.36-0.59-0.64-0.97-0.84c-0.38-0.2-0.81-0.29-1.29-0.29c-1.07,0-1.9,0.43-2.47,1.3
		c-0.43,0.64-0.65,1.65-0.65,3.02c0,1.7,0.26,2.86,0.77,3.49c0.52,0.63,1.24,0.95,2.18,0.95c0.91,0,1.59-0.25,2.05-0.76
		C126.79,28.11,127.13,27.37,127.34,26.4z"/>
	<path d="M133.55,21.57h3.98v1.82c0.38-0.79,0.78-1.33,1.19-1.63c0.41-0.3,0.91-0.44,1.51-0.44c0.63,0,1.31,0.2,2.06,0.59
		l-1.32,3.03c-0.5-0.21-0.9-0.31-1.19-0.31c-0.56,0-0.99,0.23-1.3,0.69c-0.44,0.65-0.66,1.86-0.66,3.64v3.72h-4.28V21.57z"/>
	<path d="M155.69,28.18h-8.53c0.08,0.68,0.26,1.19,0.55,1.53c0.41,0.48,0.95,0.72,1.61,0.72c0.42,0,0.82-0.1,1.19-0.31
		c0.23-0.13,0.48-0.37,0.74-0.7l4.19,0.39c-0.64,1.12-1.41,1.92-2.32,2.4c-0.91,0.48-2.21,0.73-3.9,0.73
		c-1.47,0-2.63-0.21-3.47-0.62c-0.84-0.42-1.54-1.07-2.1-1.98c-0.55-0.9-0.83-1.96-0.83-3.18c0-1.74,0.56-3.14,1.67-4.21
		c1.11-1.07,2.65-1.61,4.61-1.61c1.59,0,2.84,0.24,3.76,0.72c0.92,0.48,1.62,1.18,2.1,2.09c0.48,0.91,0.72,2.1,0.72,3.57V28.18z
		 M151.36,26.14c-0.08-0.82-0.31-1.41-0.66-1.77c-0.36-0.36-0.83-0.53-1.42-0.53c-0.68,0-1.22,0.27-1.62,0.81
		c-0.26,0.33-0.42,0.83-0.49,1.5H151.36z"/>
	<path d="M161.52,25.17l-4.07-0.43c0.15-0.71,0.37-1.27,0.66-1.68c0.29-0.41,0.71-0.76,1.25-1.06c0.39-0.22,0.93-0.38,1.61-0.5
		c0.68-0.12,1.42-0.18,2.22-0.18c1.28,0,2.3,0.07,3.07,0.21c0.77,0.14,1.42,0.44,1.93,0.89c0.36,0.31,0.65,0.76,0.86,1.33
		s0.31,1.12,0.31,1.65v4.91c0,0.52,0.03,0.93,0.1,1.23c0.07,0.3,0.21,0.67,0.43,1.13h-3.99c-0.16-0.29-0.26-0.5-0.31-0.65
		c-0.05-0.15-0.1-0.38-0.15-0.71c-0.56,0.54-1.11,0.92-1.66,1.15c-0.75,0.31-1.63,0.46-2.62,0.46c-1.32,0-2.33-0.31-3.02-0.92
		c-0.69-0.61-1.03-1.37-1.03-2.27c0-0.84,0.25-1.54,0.74-2.08c0.49-0.54,1.41-0.95,2.74-1.21c1.6-0.32,2.63-0.55,3.11-0.67
		s0.98-0.3,1.51-0.51c0-0.52-0.11-0.89-0.32-1.1c-0.22-0.21-0.6-0.31-1.14-0.31c-0.7,0-1.22,0.11-1.57,0.33
		C161.91,24.36,161.69,24.68,161.52,25.17z M165.22,27.4c-0.59,0.21-1.2,0.39-1.83,0.55c-0.86,0.23-1.41,0.46-1.64,0.68
		c-0.24,0.23-0.36,0.49-0.36,0.78c0,0.33,0.12,0.61,0.35,0.82c0.23,0.21,0.58,0.32,1.03,0.32c0.47,0,0.92-0.12,1.32-0.35
		c0.41-0.23,0.7-0.51,0.87-0.84c0.17-0.33,0.26-0.76,0.26-1.29V27.4z"/>
	<path d="M176.7,17.34v4.22h2.34v3.12h-2.34v3.93c0,0.47,0.04,0.79,0.14,0.94c0.14,0.24,0.38,0.35,0.73,0.35
		c0.31,0,0.75-0.09,1.32-0.27l0.31,2.94c-1.05,0.23-2.04,0.35-2.95,0.35c-1.06,0-1.84-0.14-2.34-0.41c-0.5-0.27-0.87-0.68-1.11-1.24
		c-0.24-0.55-0.36-1.45-0.36-2.69v-3.91h-1.57v-3.12h1.57v-2.04L176.7,17.34z"/>
	<path d="M181.23,17.34h4.26v2.9h-4.26V17.34z M181.23,21.57h4.26v11.11h-4.26V21.57z"/>
	<path d="M186.95,21.57h4.43l2.15,7.04l2.24-7.04h4.29l-4.72,11.11h-3.77L186.95,21.57z"/>
	<path d="M213.06,28.18h-8.53c0.08,0.68,0.26,1.19,0.55,1.53c0.41,0.48,0.95,0.72,1.61,0.72c0.42,0,0.82-0.1,1.19-0.31
		c0.23-0.13,0.48-0.37,0.74-0.7l4.19,0.39c-0.64,1.12-1.41,1.92-2.32,2.4c-0.91,0.48-2.21,0.73-3.9,0.73
		c-1.47,0-2.63-0.21-3.47-0.62c-0.84-0.42-1.54-1.07-2.1-1.98c-0.55-0.9-0.83-1.96-0.83-3.18c0-1.74,0.56-3.14,1.67-4.21
		c1.11-1.07,2.65-1.61,4.61-1.61c1.59,0,2.84,0.24,3.76,0.72c0.92,0.48,1.62,1.18,2.1,2.09c0.48,0.91,0.72,2.1,0.72,3.57V28.18z
		 M208.73,26.14c-0.08-0.82-0.31-1.41-0.66-1.77c-0.36-0.36-0.83-0.53-1.42-0.53c-0.68,0-1.22,0.27-1.62,0.81
		c-0.26,0.33-0.42,0.83-0.49,1.5H208.73z"/>
</g>
<line class="st0" x1="66.59" y1="37.17" x2="213.06" y2="37.17"/>
<line class="st0" x1="112.36" y1="37.91" x2="112.36" y2="9.77"/>
</svg>
